{"title":"Jack and Jill 2011 720p BDRip x264 ac3 (mp4) [GREYSHADOW]","uid":7046969,"size":3868236373,"categoryP":"video","categoryS":"hd___movies","magnet":"?xt=urn:btih:c9d450ba9742093f5f76ac9545cf282fb82fa195&amp;dn=Jack+and+Jill+2011+720p+BDRip+x264+ac3+%28mp4%29+%5BGREYSHADOW%5D&amp;tr=udp%3A%2F%2Ftracker.openbittorrent.com%3A80&amp;tr=udp%3A%2F%2Fopen.demonii.com%3A1337&amp;tr=udp%3A%2F%2Ftracker.coppersurfer.tk%3A6969&amp;tr=udp%3A%2F%2Fexodus.desync.com%3A6969","seeders":0,"leechers":0,"uploader":"grey.shadow","files":4,"time":1329785834,"description":"***************************************************************\n\n[IMG]http://www.hotimg.org/images/67363952943939111394.png[/IMG]\n\n***************************************************************\n\n[IMG]http://www.hotimg.org/images/07325204776003944334.jpg[/IMG]\n\n***************************************************************\n\nFILM TITLE: Jack and Jill (2011)\n\n***************************************************************\n\nGenre:  Comedy  \n\nRated PG for crude material including suggestive references, language and comic violence\n\nRelease:  3 February 2012 (Poland)\n\nDirector: Dennis Dugan\n\nWriter: Adam Sandler (screenplay), Steve Koren (screenplay)\n\nStars:  Adam Sandler, Katie Holmes and Al Pacino\n\nCountry: USA \n\nLanguage:  English\n\nPlot:\nFamily guy Jack Sadelstein prepares for the annual event he \ndreads: the Thanksgiving visit of his twin sister, the needy and \npassive-aggressive Jill, who then refuses to leave.\n\nIMDB Rating: 3.0/10 from 8,909 users   Metascore: 23/100 \n &lt;a href=&quot;\nhttp://www.imdb.com/title/tt0810913/&quot; rel=&quot;nofollow&quot; target=&quot;_NEW&quot;&gt;\nhttp://www.imdb.com/title/tt0810913/&lt;/a&gt;\n\n****************************************************************\n\n[url=http://www.imagezon3.com/images/GoIgO.png][img]http://www.imagezon3.com/images/thumbs/GoIgO.png[/img][/url]\n[url=http://www.imagezon3.com/images/5GryP.png][img]http://www.imagezon3.com/images/thumbs/5GryP.png[/img][/url]\n[url=http://www.imagezon3.com/images/0xJ94.png][img]http://www.imagezon3.com/images/thumbs/0xJ94.png[/img][/url]\n[url=http://www.imagezon3.com/images/HLW8o.png][img]http://www.imagezon3.com/images/thumbs/HLW8o.png[/img][/url]\n[url=http://www.imagezon3.com/images/gkdzq.png][img]http://www.imagezon3.com/images/thumbs/gkdzq.png[/img][/url]\n\n****************************************************************\n\nGeneral\nComplete name                    : Jack and Jill 2011 720p BDRip x264 ac3 (mp4) [GREYSHADOW].mp4\nFormat                           : MPEG-4\nFormat profile                   : Base Media\nCodec ID                         : isom\nFile size                        : 3.58 GiB\nDuration                         : 1h 30mn\nOverall bit rate                 : 5642 Kbps\nEncoded date                     : UTC 2012-02-20 15:00:20\nTagged date                      : UTC 2012-02-20 15:00:20\n\nVideo\nID                               : 1\nFormat                           : AVC\nFormat/Info                      : Advanced Video Codec\nFormat profile                   : &lt;a class=&quot;__cf_email__&quot; href=&quot;/cdn-cgi/l/email-protection&quot; data-cfemail=&quot;bff7d6d8d7fff38b918e&quot;&gt;[email&amp;#160;protected]&lt;/a&gt;&lt;script cf-hash='f9e31' type=&quot;text/javascript&quot;&gt;\n/* &lt;![CDATA[ */!function(){try{var t=&quot;currentScript&quot;in document?document.currentScript:function(){for(var t=document.getElementsByTagName(&quot;script&quot;),e=t.length;e--;)if(t[e].getAttribute(&quot;cf-hash&quot;))return t[e]}();if(t&amp;&amp;t.previousSibling){var e,r,n,i,c=t.previousSibling,a=c.getAttribute(&quot;data-cfemail&quot;);if(a){for(e=&quot;&quot;,r=parseInt(a.substr(0,2),16),n=2;a.length-n;n+=2)i=parseInt(a.substr(n,2),16)^r,e+=String.fromCharCode(i);e=document.createTextNode(e),c.parentNode.replaceChild(e,c)}}}catch(u){}}();/* ]]&gt; */&lt;/script&gt;\nFormat settings, CABAC           : Yes\nFormat settings, ReFrames        : 9 frames\nCodec ID                         : avc1\nCodec ID/Info                    : Advanced Video Coding\nDuration                         : 1h 30mn\nBit rate                         : 5000 Kbps\nMaximum bit rate                 : 25.7 Mbps\nWidth                            : 1280 pixels\nHeight                           : 688 pixels\nDisplay aspect ratio             : 1.860\nFrame rate mode                  : Constant\nFrame rate                       : 23.976 fps\nColor space                      : YUV\nChroma subsampling               : 4:2:0\nBit depth                        : 8 bits\nScan type                        : Progressive\nBits/(Pixel*Frame)               : 0.237\nStream size                      : 3.17 GiB (89%)\nTitle                            : AVC MPEG4 Video\nWriting library                  : x264 core 120 r2164 da19765\nEncoded date                     : UTC 2012-02-20 06:42:46\nTagged date                      : UTC 2012-02-20 15:01:31\nColor primaries                  : BT.709-5, BT.1361, IEC 61966-2-4, SMPTE RP177\nTransfer characteristics         : BT.709-5, BT.1361\nMatrix coefficients              : BT.709-5, BT.1361, IEC 61966-2-4 709, SMPTE RP177\n\nAudio\nID                               : 2\nFormat                           : AC-3\nFormat/Info                      : Audio Coding 3\nMode extension                   : CM (complete main)\nCodec ID                         : ac-3\nDuration                         : 1h 30mn\nBit rate mode                    : Constant\nBit rate                         : 640 Kbps\nChannel(s)                       : 6 channels\nChannel positions                : Front: L C R, Side: L R, LFE\nSampling rate                    : 48.0 KHz\nBit depth                        : 16 bits\nCompression mode                 : Lossy\nStream size                      : 416 MiB (11%)\nTitle                            : AC3 5.1 640 kbps\nLanguage                         : English\nEncoded date                     : UTC 2012-02-20 15:01:27\nTagged date                      : UTC 2012-02-20 15:01:31\n\n****************************************************************\n\nVideo Source: D:\\Jack.and.Jill.2011.BluRay.1080p.AVC.DTS-HD.MA5.1-CHDBits (25.2GB)\n\nThanks: chdbits.org\n\n****************************************************************\n\nI provide a small sample, so please download this to check your \ncompatibility first if you are unsure.\n\n****************************************************************","torrent":{"xt":"urn:btih:c9d450ba9742093f5f76ac9545cf282fb82fa195","amp;dn":"Jack+and+Jill+2011+720p+BDRip+x264+ac3+%28mp4%29+%5BGREYSHADOW%5D","amp;tr":["udp%3A%2F%2Ftracker.openbittorrent.com%3A80","udp%3A%2F%2Fopen.demonii.com%3A1337","udp%3A%2F%2Ftracker.coppersurfer.tk%3A6969","udp%3A%2F%2Fexodus.desync.com%3A6969"],"infoHash":"c9d450ba9742093f5f76ac9545cf282fb82fa195","infoHashBuffer":{"type":"Buffer","data":[201,212,80,186,151,66,9,63,95,118,172,149,69,207,40,47,184,47,161,149]},"announce":[],"urlList":[]}}